<svg width="329" height="231" viewBox="0 0 329 231" fill="none" xmlns="http://www.w3.org/2000/svg">
<path d="M20.6146 205.96L17.2818 212.502L20.3795 215.647L18.3583 219.614L3.68294 203.647L5.44439 200.189L27.0071 202.638L24.9859 206.605L20.6146 205.96ZM14.7726 209.955L17.079 205.428L9.1408 204.25L14.7726 209.955Z" fill="#D01B20"/>
<path d="M24.6546 190.866L23.1403 193.838L29.7697 197.216L27.8688 200.947L9.75929 191.72L13.1871 184.992C14.277 182.853 15.5943 181.446 17.1393 180.771C18.6842 180.096 20.3273 180.203 22.0686 181.09C23.3041 181.719 24.1992 182.515 24.7538 183.476C25.3044 184.425 25.5476 185.567 25.4835 186.902L34.8799 186.755L35.054 186.844L33.0138 190.849L24.6546 190.866ZM20.1179 192.298L21.6512 189.289C22.1286 188.352 22.2618 187.506 22.0511 186.751C21.8321 185.992 21.3038 185.399 20.4663 184.973C19.6122 184.538 18.816 184.44 18.0775 184.68C17.3433 184.912 16.7207 185.529 16.2095 186.532L14.6825 189.529L20.1179 192.298Z" fill="#D01B20"/>
<path d="M33.8587 169.787L30.209 176.951L35.0598 179.422L39.343 171.015L42.3406 172.542L36.1565 184.68L18.047 175.454L24.2184 163.341L27.2408 164.881L22.9702 173.263L27.2861 175.462L30.9358 168.298L33.8587 169.787Z" fill="#D01B20"/>
<path d="M50.9577 155.629L49.0569 159.36L33.4411 160.552L45.3566 166.623L43.4557 170.354L25.3462 161.127L27.247 157.396L42.894 156.204L30.9537 150.121L32.8482 146.402L50.9577 155.629Z" fill="#D01B20"/>
<path d="M54.2088 140.023L50.876 146.565L53.9737 149.709L51.9525 153.676L37.2771 137.709L39.0386 134.252L60.6013 136.701L58.5801 140.668L54.2088 140.023ZM48.3668 144.017L50.6731 139.491L42.735 138.313L48.3668 144.017Z" fill="#D01B20"/>
<path d="M61.4955 123.2C60.7907 122.84 60.125 122.815 59.4984 123.122C58.8636 123.425 58.0094 124.118 56.9358 125.2C55.854 126.278 54.9177 127.09 54.127 127.638C51.9683 129.128 49.9478 129.393 48.0656 128.434C47.0871 127.936 46.3559 127.219 45.8718 126.283C45.3837 125.334 45.1859 124.236 45.2785 122.989C45.3753 121.733 45.7511 120.462 46.4058 119.177C47.0648 117.884 47.8883 116.852 48.8762 116.081C49.8559 115.306 50.9143 114.858 52.0514 114.738C53.1927 114.609 54.3065 114.822 55.3927 115.375L53.4919 119.106C52.6627 118.684 51.887 118.617 51.1648 118.907C50.4344 119.193 49.8284 119.809 49.3468 120.754C48.8822 121.666 48.7159 122.474 48.8479 123.178C48.9717 123.878 49.3486 124.389 49.9788 124.71C50.5676 125.01 51.2109 124.967 51.9088 124.581C52.611 124.187 53.4297 123.502 54.3651 122.527C56.085 120.73 57.6647 119.587 59.1041 119.099C60.5436 118.61 61.9682 118.725 63.3778 119.444C64.945 120.242 65.8743 121.462 66.1658 123.104C66.449 124.742 66.0795 126.564 65.0573 128.57C64.3476 129.963 63.4484 131.103 62.3597 131.989C61.2627 132.871 60.1164 133.389 58.9208 133.542C57.7294 133.687 56.5491 133.462 55.38 132.866L57.2871 129.123C59.2855 130.141 60.8929 129.456 62.1095 127.068C62.5615 126.181 62.7359 125.398 62.6328 124.719C62.5214 124.035 62.1423 123.529 61.4955 123.2Z" fill="#D01B20"/>
<path d="M61.3038 98.023L58.4779 103.57L73.565 111.256L71.6642 114.987L56.5771 107.3L53.7892 112.772L50.7668 111.233L58.2814 96.4831L61.3038 98.023Z" fill="#D01B20"/>
<path d="M66.3536 80.6393L78.2816 86.7164C80.2633 87.7261 81.5137 89.1464 82.0327 90.9772C82.5558 92.7998 82.2704 94.7847 81.1764 96.9321C80.0992 99.0462 78.6842 100.44 76.9311 101.113C75.1781 101.787 73.3168 101.637 71.3473 100.665L59.2825 94.5182L61.1834 90.7873L73.1362 96.8771C74.3219 97.4812 75.332 97.6408 76.1665 97.3559C76.997 97.0584 77.6677 96.4081 78.1789 95.4049C79.2475 93.3073 78.6875 91.68 76.4988 90.5231L64.4465 84.3826L66.3536 80.6393Z" fill="#D01B20"/>
<path d="M86.0219 86.8065L67.9123 77.58L70.7509 72.0085C71.5619 70.4167 72.6471 69.1786 74.0063 68.2942C75.3615 67.3973 76.8819 66.9344 78.5677 66.9057C80.2451 66.8727 81.9255 67.2849 83.6088 68.1425L84.4421 68.5671C86.1254 69.4247 87.4446 70.5355 88.3999 71.8994C89.3595 73.255 89.8789 74.7467 89.9582 76.3745C90.0376 78.0022 89.678 79.61 88.8795 81.1978L86.0219 86.8065ZM72.8356 75.389L84.9252 81.5485L85.8439 79.7452C86.5874 78.286 86.6787 76.928 86.118 75.6711C85.5573 74.4142 84.3939 73.3254 82.6279 72.4048L81.6701 71.9168C79.8293 70.979 78.242 70.6506 76.9081 70.9318C75.5659 71.2087 74.521 72.0809 73.7733 73.5484L72.8356 75.389Z" fill="#D01B20"/>
<path d="M96.4828 66.2742L94.582 70.0051L76.4724 60.7785L78.3733 57.0476L96.4828 66.2742Z" fill="#D01B20"/>
<path d="M97.1843 43.5265C98.9671 44.4348 100.37 45.5462 101.392 46.8607C102.414 48.1752 102.99 49.607 103.12 51.1561C103.254 52.6968 102.935 54.2258 102.162 55.7431C101.397 57.2437 100.354 58.3989 99.033 59.2087C97.7118 60.0184 96.2189 60.4066 94.5544 60.3731C92.8817 60.3354 91.1725 59.8771 89.427 58.9982L88.5315 58.542C86.7487 57.6337 85.3442 56.516 84.3178 55.189C83.2874 53.8495 82.7094 52.4114 82.5836 50.8749C82.4537 49.3258 82.7731 47.7968 83.5419 46.2879C84.3107 44.7789 85.3577 43.6259 86.683 42.8286C88.0042 42.0188 89.5074 41.6412 91.1925 41.6956C92.8736 41.7376 94.6014 42.2106 96.3758 43.1146L97.1843 43.5265ZM94.4372 46.8889C92.5384 45.9215 90.9224 45.5263 89.5893 45.7034C88.2562 45.8806 87.2686 46.5992 86.6265 47.8594C85.9887 49.1114 85.9858 50.3265 86.6179 51.5049C87.2416 52.679 88.4926 53.7497 90.3706 54.717L91.2537 55.1669C93.1028 56.109 94.7105 56.4999 96.0768 56.3397C97.443 56.1795 98.4514 55.461 99.1019 54.1842C99.7398 52.9323 99.7405 51.7213 99.1043 50.5512C98.4597 49.3769 97.1984 48.3061 95.3203 47.3388L94.4372 46.8889Z" fill="#D01B20"/>
<path d="M104.645 45.8867C104.073 45.5952 103.706 45.1679 103.544 44.6049C103.386 44.0336 103.455 43.4577 103.75 42.8774C104.05 42.2887 104.476 41.8945 105.026 41.6948C105.582 41.4868 106.145 41.5285 106.717 41.82C107.281 42.1073 107.644 42.5325 107.806 43.0955C107.96 43.6543 107.885 44.2322 107.581 44.8291C107.281 45.4178 106.86 45.8141 106.317 46.018C105.767 46.2178 105.209 46.174 104.645 45.8867Z" fill="#D01B20"/>
<path d="M106.999 29.244L105.485 32.2163L112.114 35.5939L110.213 39.3248L92.1037 30.0982L95.5315 23.3702C96.6214 21.2311 97.9387 19.8242 99.4837 19.1493C101.029 18.4744 102.672 18.5805 104.413 19.4677C105.649 20.0972 106.544 20.8926 107.098 21.8539C107.649 22.8028 107.892 23.9449 107.828 25.2803L117.224 25.1333L117.398 25.222L115.358 29.2265L106.999 29.244ZM102.462 30.6764L103.996 27.6668C104.473 26.73 104.606 25.8841 104.395 25.1293C104.176 24.3702 103.648 23.7774 102.811 23.3507C101.957 22.9155 101.16 22.8179 100.422 23.0578C99.6877 23.2894 99.0651 23.9068 98.5539 24.91L97.0269 27.9072L102.462 30.6764Z" fill="#D01B20"/>
<path d="M107.374 0.126733L119.302 6.20386C121.283 7.21354 122.534 8.63381 123.053 10.4647C123.576 12.2872 123.291 14.2722 122.197 16.4195C121.119 18.5337 119.704 19.9274 117.951 20.6007C116.198 21.274 114.337 21.1246 112.367 20.1525L100.303 14.0056L102.203 10.2747L114.156 16.3645C115.342 16.9687 116.352 17.1283 117.187 16.8433C118.017 16.5458 118.688 15.8955 119.199 14.8923C120.268 12.7947 119.708 11.1675 117.519 10.0105L105.467 3.87006L107.374 0.126733Z" fill="#D01B20"/>
<path d="M211.567 0H146.433C145.288 0 144.24 0.642523 143.721 1.66253L29.334 226.584C28.3057 228.606 29.7759 231 32.0459 231H91.9983C92.4823 231 92.9593 230.885 93.3896 230.663L209.884 170.795C212.958 169.215 211.432 164.55 208.018 165.09L130.148 177.394C127.705 177.78 125.847 175.245 126.952 173.033L176.134 74.6289C176.649 73.5984 177.703 72.9474 178.856 72.9474H179.166C180.307 72.9474 181.353 73.586 181.873 74.6012L261.197 229.346C261.718 230.361 262.763 231 263.905 231H325.954C328.224 231 329.694 228.606 328.666 226.584L214.279 1.66252C213.76 0.642514 212.712 0 211.567 0Z" fill="#D01B20"/>
<path d="M208.768 0H149.232C146.37 0 143.75 1.60629 142.453 4.15629L32.7031 219.959C30.1323 225.014 33.8079 231 39.4827 231H88.493C91.1296 231 93.5781 229.635 94.9634 227.394L111.198 201.125L124.312 178.316L176.064 74.7684C176.622 73.6524 177.763 72.9474 179.012 72.9474C180.248 72.9474 181.38 73.639 181.944 74.7384L259.926 226.865C261.227 229.403 263.84 231 266.694 231H318.517C324.192 231 327.868 225.014 325.297 219.959L215.547 4.15629C214.25 1.60628 211.63 0 208.768 0Z" fill="#D01B20"/>
</svg>
